<svg width="100" height="100" viewBox="0 0 100 100" fill="none" xmlns="http://www.w3.org/2000/svg">
<path d="M90.625 71.875V70.925C90.6243 69.48 90.4565 68.0398 90.125 66.6333L80.675 26.4667C79.9491 23.3815 78.2022 20.632 75.7178 18.6641C73.2333 16.6962 70.1569 15.6253 66.9875 15.625H33.0125C29.8431 15.6253 26.7667 16.6962 24.2822 18.6641C21.7977 20.632 20.0509 23.3815 19.325 26.4667L9.875 66.6333C9.54351 68.0398 9.37573 69.48 9.375 70.925V71.875M90.625 71.875C90.625 75.1902 89.308 78.3696 86.9638 80.7138C84.6196 83.058 81.4402 84.375 78.125 84.375H21.875C18.5598 84.375 15.3804 83.058 13.0362 80.7138C10.692 78.3696 9.375 75.1902 9.375 71.875M90.625 71.875C90.625 68.5598 89.308 65.3804 86.9638 63.0362C84.6196 60.692 81.4402 59.375 78.125 59.375H21.875C18.5598 59.375 15.3804 60.692 13.0362 63.0362C10.692 65.3804 9.375 68.5598 9.375 71.875M78.125 71.875H78.1583V71.9083H78.125V71.875ZM65.625 71.875H65.6583V71.9083H65.625V71.875Z" stroke="white" stroke-width="6" stroke-linecap="round" stroke-linejoin="round"/>
</svg>
