<svg width="100" height="100" viewBox="0 0 100 100" fill="none" xmlns="http://www.w3.org/2000/svg">
<path d="M84.375 26.5625C84.375 36.0542 68.9833 43.75 50 43.75C31.0167 43.75 15.625 36.0542 15.625 26.5625M84.375 26.5625C84.375 17.0708 68.9833 9.375 50 9.375C31.0167 9.375 15.625 17.0708 15.625 26.5625M84.375 26.5625V73.4375C84.375 82.9292 68.9833 90.625 50 90.625C31.0167 90.625 15.625 82.9292 15.625 73.4375V26.5625M84.375 26.5625V42.1875M15.625 26.5625V42.1875M84.375 42.1875V57.8125C84.375 67.3042 68.9833 75 50 75C31.0167 75 15.625 67.3042 15.625 57.8125V42.1875M84.375 42.1875C84.375 51.6792 68.9833 59.375 50 59.375C31.0167 59.375 15.625 51.6792 15.625 42.1875" stroke="white" stroke-width="6" stroke-linecap="round" stroke-linejoin="round"/>
</svg>
