<svg width="100" height="100" viewBox="0 0 100 100" fill="none" xmlns="http://www.w3.org/2000/svg">
<path d="M12.5 34.375V75C12.5 77.4864 13.4877 79.871 15.2459 81.6291C17.004 83.3873 19.3886 84.375 21.875 84.375H78.125C80.6114 84.375 82.996 83.3873 84.7541 81.6291C86.5123 79.871 87.5 77.4864 87.5 75V34.375M12.5 34.375V25C12.5 22.5136 13.4877 20.129 15.2459 18.3709C17.004 16.6127 19.3886 15.625 21.875 15.625H78.125C80.6114 15.625 82.996 16.6127 84.7541 18.3709C86.5123 20.129 87.5 22.5136 87.5 25V34.375M12.5 34.375H87.5M21.875 25H21.9083V25.0333H21.875V25ZM31.25 25H31.2833V25.0333H31.25V25ZM40.625 25H40.6583V25.0333H40.625V25Z" stroke="white" stroke-width="6" stroke-linecap="round" stroke-linejoin="round"/>
</svg>
