<svg width="100" height="100" viewBox="0 0 100 100" fill="none" xmlns="http://www.w3.org/2000/svg">
<path d="M37.5 71.875V76.0708C37.5002 77.7129 37.1768 79.339 36.5484 80.8561C35.92 82.3731 34.9988 83.7515 33.8375 84.9125L31.25 87.5H68.75L66.1625 84.9125C65.0012 83.7515 64.08 82.3731 63.4516 80.8561C62.8232 79.339 62.4998 77.7129 62.5 76.0708V71.875M87.5 21.875V62.5C87.5 64.9864 86.5123 67.371 84.7541 69.1291C82.996 70.8873 80.6114 71.875 78.125 71.875H21.875C19.3886 71.875 17.004 70.8873 15.2459 69.1291C13.4877 67.371 12.5 64.9864 12.5 62.5V21.875M87.5 21.875C87.5 19.3886 86.5123 17.004 84.7541 15.2459C82.996 13.4877 80.6114 12.5 78.125 12.5H21.875C19.3886 12.5 17.004 13.4877 15.2459 15.2459C13.4877 17.004 12.5 19.3886 12.5 21.875M87.5 21.875V50C87.5 52.4864 86.5123 54.871 84.7541 56.6291C82.996 58.3873 80.6114 59.375 78.125 59.375H21.875C19.3886 59.375 17.004 58.3873 15.2459 56.6291C13.4877 54.871 12.5 52.4864 12.5 50V21.875" stroke="white" stroke-width="6" stroke-linecap="round" stroke-linejoin="round"/>
</svg>
