<svg width="100" height="100" viewBox="0 0 100 100" fill="none" xmlns="http://www.w3.org/2000/svg">
<path d="M59.375 40.625L68.75 50L59.375 59.375M40.625 59.375L31.25 50L40.625 40.625M25 84.375H75C77.4864 84.375 79.871 83.3873 81.6291 81.6291C83.3873 79.871 84.375 77.4864 84.375 75V25C84.375 22.5136 83.3873 20.129 81.6291 18.3709C79.871 16.6127 77.4864 15.625 75 15.625H25C22.5136 15.625 20.129 16.6127 18.3709 18.3709C16.6127 20.129 15.625 22.5136 15.625 25V75C15.625 77.4864 16.6127 79.871 18.3709 81.6291C20.129 83.3873 22.5136 84.375 25 84.375Z" stroke="white" stroke-width="6" stroke-linecap="round" stroke-linejoin="round"/>
</svg>
